<?xml version="1.0" encoding="UTF-8" standalone="no"?>
<svg
   xmlns:dc="http://purl.org/dc/elements/1.1/"
   xmlns:cc="http://creativecommons.org/ns#"
   xmlns:rdf="http://www.w3.org/1999/02/22-rdf-syntax-ns#"
   xmlns:svg="http://www.w3.org/2000/svg"
   xmlns="http://www.w3.org/2000/svg"
   xmlns:sodipodi="http://sodipodi.sourceforge.net/DTD/sodipodi-0.dtd"
   xmlns:inkscape="http://www.inkscape.org/namespaces/inkscape"
   version="1.0"
   width="260.000000pt"
   height="260.000000pt"
   viewBox="0 0 260.000000 260.000000"
   preserveAspectRatio="xMidYMid meet"
   id="svg8"
   sodipodi:docname="safari-pinned-tab.svg"
   inkscape:version="0.92.3 (2405546, 2018-03-11)">
  <defs
     id="defs12" />
  <sodipodi:namedview
     pagecolor="#ffffff"
     bordercolor="#666666"
     borderopacity="1"
     objecttolerance="10"
     gridtolerance="10"
     guidetolerance="10"
     inkscape:pageopacity="0"
     inkscape:pageshadow="2"
     inkscape:window-width="1869"
     inkscape:window-height="1025"
     id="namedview10"
     showgrid="false"
     inkscape:zoom="0.68076923"
     inkscape:cx="173.33333"
     inkscape:cy="173.33333"
     inkscape:window-x="51"
     inkscape:window-y="27"
     inkscape:window-maximized="1"
     inkscape:current-layer="g4562" />
  <metadata
     id="metadata2">
Created by potrace 1.11, written by Peter Selinger 2001-2013
<rdf:RDF>
  <cc:Work
     rdf:about="">
    <dc:format>image/svg+xml</dc:format>
    <dc:type
       rdf:resource="http://purl.org/dc/dcmitype/StillImage" />
  </cc:Work>
</rdf:RDF>
</metadata>
  <g
     id="g4562"
     transform="matrix(2.8346458,0,0,2.8346458,216.93696,-73.434633)">
    <g
       transform="translate(-42.304019,-100.83817)"
       id="layer1"
       inkscape:label="Layer 1" />
    <g
       transform="translate(-60.087882,-92.457272)"
       id="g5206" />
    <g
       transform="matrix(1.104447,0,0,1,-51.009624,-100.83817)"
       id="text5962"
       style="font-style:normal;font-weight:normal;font-size:69.71367645px;line-height:1.25;font-family:sans-serif;letter-spacing:0px;word-spacing:0px;fill:#000000;fill-opacity:1;stroke:none;stroke-width:1.74284196"
       aria-label="k" />
    <g
       id="g6092"
       transform="translate(-70.734933,37.699387)">
      <path
         style="fill:#000000;fill-opacity:1;stroke:#000000;stroke-width:1.52866232;stroke-opacity:1"
         d="m 253.69727,55.212891 a 55.039803,55.039803 0 0 1 -55.03321,54.867189 55.039803,55.039803 0 0 1 -19.1289,-3.46875 l -15.42969,41.59961 a 99.373313,99.373313 0 0 0 91.17773,-11.50586 99.373313,99.373313 0 0 0 42.75391,-81.351564 z"
         transform="scale(0.26458333)"
         id="path588-3-9-8"
         inkscape:connector-curvature="0" />
      <path
         style="fill:#000000;fill-opacity:1;stroke:#000000;stroke-width:1.52866232;stroke-opacity:1"
         d="m 205.92188,111.60547 a 99.373313,99.373313 0 0 0 -47.83594,11.375 l 20.62109,39.2793 a 55.039803,55.039803 0 0 1 25.57031,-6.33399 55.039803,55.039803 0 0 1 55.03516,54.86524 l 44.33789,-0.13868 a 99.373313,99.373313 0 0 0 -48.10351,-84.8125 99.373313,99.373313 0 0 0 -49.625,-14.23437 z"
         transform="scale(0.26458333)"
         id="path588-3-9"
         inkscape:connector-curvature="0" />
      <path
         style="fill:#000000;fill-opacity:1;stroke:#000000;stroke-width:1.52866232;stroke-opacity:1"
         d="M 97.441406,29.259766 A 99.373313,99.373313 0 0 0 15.091797,77.193359 99.373313,99.373313 0 0 0 27.787109,196.7168 99.373313,99.373313 0 0 0 146.33008,216.58203 l -20.62305,-39.2793 a 55.039803,55.039803 0 0 1 -25.57031,6.33399 55.039803,55.039803 0 0 1 -55.039064,-55.03906 55.039803,55.039803 0 0 1 55.039064,-55.041019 55.039803,55.039803 0 0 1 55.04101,55.041019 h 44.33399 A 99.373313,99.373313 0 0 0 126.81836,32.873047 99.373313,99.373313 0 0 0 97.441406,29.259766 Z"
         transform="scale(0.26458333)"
         id="path588-3"
         inkscape:connector-curvature="0" />
      <rect
         style="fill:#000000;fill-opacity:1;stroke:#000000;stroke-width:0.27206168;stroke-opacity:1"
         id="rect5113"
         width="11.858953"
         height="52.370312"
         x="40.991528"
         y="7.987453" />
      <rect
         style="fill:#000000;fill-opacity:1;stroke:none;stroke-width:0.08339525;stroke-opacity:1"
         id="rect5113-5"
         width="12.117836"
         height="4.7321143"
         x="68.408226"
         y="55.916485" />
    </g>
  </g>
</svg>
